o Box
v 6.259481608132893 3.54589934520506 3.06138361887873
v 6.259481608132893 3.54589934520506 2.790714263692585
v 6.259481608132893 3.54589934520506 2.5200449085064403
v 6.259481608132893 3.1777546968209407 3.06138361887873
v 6.259481608132893 3.1777546968209407 2.790714263692585
v 6.259481608132893 3.1777546968209407 2.5200449085064403
v 6.259481608132893 2.8096100484368214 3.06138361887873
v 6.259481608132893 2.8096100484368214 2.790714263692585
v 6.259481608132893 2.8096100484368214 2.5200449085064403
v 5.817751738784198 3.54589934520506 2.5200449085064403
v 5.817751738784198 3.54589934520506 2.790714263692585
v 5.817751738784198 3.54589934520506 3.06138361887873
v 5.817751738784198 3.1777546968209407 2.5200449085064403
v 5.817751738784198 3.1777546968209407 2.790714263692585
v 5.817751738784198 3.1777546968209407 3.06138361887873
v 5.817751738784198 2.8096100484368214 2.5200449085064403
v 5.817751738784198 2.8096100484368214 2.790714263692585
v 5.817751738784198 2.8096100484368214 3.06138361887873
v 5.817751738784198 3.54589934520506 2.5200449085064403
v 6.038616673458545 3.54589934520506 2.5200449085064403
v 6.259481608132893 3.54589934520506 2.5200449085064403
v 5.817751738784198 3.54589934520506 2.790714263692585
v 6.038616673458545 3.54589934520506 2.790714263692585
v 6.259481608132893 3.54589934520506 2.790714263692585
v 5.817751738784198 3.54589934520506 3.06138361887873
v 6.038616673458545 3.54589934520506 3.06138361887873
v 6.259481608132893 3.54589934520506 3.06138361887873
v 5.817751738784198 2.8096100484368214 3.06138361887873
v 6.038616673458545 2.8096100484368214 3.06138361887873
v 6.259481608132893 2.8096100484368214 3.06138361887873
v 5.817751738784198 2.8096100484368214 2.790714263692585
v 6.038616673458545 2.8096100484368214 2.790714263692585
v 6.259481608132893 2.8096100484368214 2.790714263692585
v 5.817751738784198 2.8096100484368214 2.5200449085064403
v 6.038616673458545 2.8096100484368214 2.5200449085064403
v 6.259481608132893 2.8096100484368214 2.5200449085064403
v 5.817751738784198 3.54589934520506 3.06138361887873
v 6.038616673458545 3.54589934520506 3.06138361887873
v 6.259481608132893 3.54589934520506 3.06138361887873
v 5.817751738784198 3.1777546968209407 3.06138361887873
v 6.038616673458545 3.1777546968209407 3.06138361887873
v 6.259481608132893 3.1777546968209407 3.06138361887873
v 5.817751738784198 2.8096100484368214 3.06138361887873
v 6.038616673458545 2.8096100484368214 3.06138361887873
v 6.259481608132893 2.8096100484368214 3.06138361887873
v 6.259481608132893 3.54589934520506 2.5200449085064403
v 6.038616673458545 3.54589934520506 2.5200449085064403
v 5.817751738784198 3.54589934520506 2.5200449085064403
v 6.259481608132893 3.1777546968209407 2.5200449085064403
v 6.038616673458545 3.1777546968209407 2.5200449085064403
v 5.817751738784198 3.1777546968209407 2.5200449085064403
v 6.259481608132893 2.8096100484368214 2.5200449085064403
v 6.038616673458545 2.8096100484368214 2.5200449085064403
v 5.817751738784198 2.8096100484368214 2.5200449085064403
vt 0 1
vt 0.5 1
vt 1 1
vt 0 0.5
vt 0.5 0.5
vt 1 0.5
vt 0 0
vt 0.5 0
vt 1 0
vt 0 1
vt 0.5 1
vt 1 1
vt 0 0.5
vt 0.5 0.5
vt 1 0.5
vt 0 0
vt 0.5 0
vt 1 0
vt 0 1
vt 0.5 1
vt 1 1
vt 0 0.5
vt 0.5 0.5
vt 1 0.5
vt 0 0
vt 0.5 0
vt 1 0
vt 0 1
vt 0.5 1
vt 1 1
vt 0 0.5
vt 0.5 0.5
vt 1 0.5
vt 0 0
vt 0.5 0
vt 1 0
vt 0 1
vt 0.5 1
vt 1 1
vt 0 0.5
vt 0.5 0.5
vt 1 0.5
vt 0 0
vt 0.5 0
vt 1 0
vt 0 1
vt 0.5 1
vt 1 1
vt 0 0.5
vt 0.5 0.5
vt 1 0.5
vt 0 0
vt 0.5 0
vt 1 0
vn 2.2638269888211116 0 0
vn 2.2638269888211116 0 0
vn 2.2638269888211116 0 0
vn 2.2638269888211116 0 0
vn 2.2638269888211116 0 0
vn 2.2638269888211116 0 0
vn 2.2638269888211116 0 0
vn 2.2638269888211116 0 0
vn 2.2638269888211116 0 0
vn -2.2638269888211116 0 0
vn -2.2638269888211116 0 0
vn -2.2638269888211116 0 0
vn -2.2638269888211116 0 0
vn -2.2638269888211116 0 0
vn -2.2638269888211116 0 0
vn -2.2638269888211116 0 0
vn -2.2638269888211116 0 0
vn -2.2638269888211116 0 0
vn 0 1.3581618045912855 0
vn 0 1.3581618045912855 0
vn 0 1.3581618045912855 0
vn 0 1.3581618045912855 0
vn 0 1.3581618045912855 0
vn 0 1.3581618045912855 0
vn 0 1.3581618045912855 0
vn 0 1.3581618045912855 0
vn 0 1.3581618045912855 0
vn 0 -1.3581618045912855 0
vn 0 -1.3581618045912855 0
vn 0 -1.3581618045912855 0
vn 0 -1.3581618045912855 0
vn 0 -1.3581618045912855 0
vn 0 -1.3581618045912855 0
vn 0 -1.3581618045912855 0
vn 0 -1.3581618045912855 0
vn 0 -1.3581618045912855 0
vn 0 0 1.8472722915238775
vn 0 0 1.8472722915238775
vn 0 0 1.8472722915238775
vn 0 0 1.8472722915238775
vn 0 0 1.8472722915238775
vn 0 0 1.8472722915238775
vn 0 0 1.8472722915238775
vn 0 0 1.8472722915238775
vn 0 0 1.8472722915238775
vn 0 0 -1.8472722915238775
vn 0 0 -1.8472722915238775
vn 0 0 -1.8472722915238775
vn 0 0 -1.8472722915238775
vn 0 0 -1.8472722915238775
vn 0 0 -1.8472722915238775
vn 0 0 -1.8472722915238775
vn 0 0 -1.8472722915238775
vn 0 0 -1.8472722915238775
f 1/1/1 4/4/4 2/2/2
f 4/4/4 5/5/5 2/2/2
f 2/2/2 5/5/5 3/3/3
f 5/5/5 6/6/6 3/3/3
f 4/4/4 7/7/7 5/5/5
f 7/7/7 8/8/8 5/5/5
f 5/5/5 8/8/8 6/6/6
f 8/8/8 9/9/9 6/6/6
f 10/10/10 13/13/13 11/11/11
f 13/13/13 14/14/14 11/11/11
f 11/11/11 14/14/14 12/12/12
f 14/14/14 15/15/15 12/12/12
f 13/13/13 16/16/16 14/14/14
f 16/16/16 17/17/17 14/14/14
f 14/14/14 17/17/17 15/15/15
f 17/17/17 18/18/18 15/15/15
f 19/19/19 22/22/22 20/20/20
f 22/22/22 23/23/23 20/20/20
f 20/20/20 23/23/23 21/21/21
f 23/23/23 24/24/24 21/21/21
f 22/22/22 25/25/25 23/23/23
f 25/25/25 26/26/26 23/23/23
f 23/23/23 26/26/26 24/24/24
f 26/26/26 27/27/27 24/24/24
f 28/28/28 31/31/31 29/29/29
f 31/31/31 32/32/32 29/29/29
f 29/29/29 32/32/32 30/30/30
f 32/32/32 33/33/33 30/30/30
f 31/31/31 34/34/34 32/32/32
f 34/34/34 35/35/35 32/32/32
f 32/32/32 35/35/35 33/33/33
f 35/35/35 36/36/36 33/33/33
f 37/37/37 40/40/40 38/38/38
f 40/40/40 41/41/41 38/38/38
f 38/38/38 41/41/41 39/39/39
f 41/41/41 42/42/42 39/39/39
f 40/40/40 43/43/43 41/41/41
f 43/43/43 44/44/44 41/41/41
f 41/41/41 44/44/44 42/42/42
f 44/44/44 45/45/45 42/42/42
f 46/46/46 49/49/49 47/47/47
f 49/49/49 50/50/50 47/47/47
f 47/47/47 50/50/50 48/48/48
f 50/50/50 51/51/51 48/48/48
f 49/49/49 52/52/52 50/50/50
f 52/52/52 53/53/53 50/50/50
f 50/50/50 53/53/53 51/51/51
f 53/53/53 54/54/54 51/51/51
o Cylinder
v 5.964228282741307 3.8448043910774166 2.493973645559275
v 6.4333271785295 3.8448043910774166 2.2680675119075415
v 6.549185047916173 3.8448043910774166 1.76046106516453
v 6.224558512738942 3.8448043910774166 1.3533922761592505
v 5.703898052743672 3.8448043910774166 1.3533922761592505
v 5.379271517566441 3.8448043910774166 1.76046106516453
v 5.495129386953114 3.8448043910774166 2.2680675119075415
v 5.964228282741307 3.8448043910774166 2.493973645559275
v 5.964228282741307 3.511471062711137 2.6273069709453223
v 6.537571380904912 3.511471062711137 2.3511994808826087
v 6.679175446799992 3.511471062711137 1.730791601530039
v 6.282409678272008 3.511471062711137 1.2332631081256507
v 5.646046887210606 3.511471062711137 1.2332631081256507
v 5.249281118682622 3.511471062711137 1.730791601530039
v 5.390885184577702 3.511471062711137 2.3511994808826087
v 5.964228282741307 3.511471062711137 2.6273069709453223
v 5.964228282741307 3.178137719443696 2.7606402963313696
v 6.6418155534780015 3.178137719443696 2.434331449857676
v 6.809165786079167 3.178137719443696 1.7011221527967093
v 6.340260843805074 3.178137719443696 1.1131339400920508
v 5.588195721677541 3.178137719443696 1.1131339400920508
v 5.119290779403447 3.178137719443696 1.7011221527967093
v 5.286641012004613 3.178137719443696 2.434331449857676
v 5.964228282741307 3.178137719443696 2.7606402963313696
v 5.964228282741307 2.8448043910774166 2.893973621717417
v 6.746059785655736 2.8448043910774166 2.517463418832743
v 6.939156184962987 2.8448043910774166 1.6714526891622183
v 6.398112009338139 2.8448043910774166 0.993004772058451
v 5.530344556144475 2.8448043910774166 0.993004772058451
v 4.989300380519627 2.8448043910774166 1.6714526891622183
v 5.182396779826878 2.8448043910774166 2.517463418832743
v 5.964228282741307 2.8448043910774166 2.893973621717417
v 5.964228282741307 3.8448043910774166 1.893973621717417
v 5.964228282741307 3.8448043910774166 1.893973621717417
v 5.964228282741307 3.8448043910774166 1.893973621717417
v 5.964228282741307 3.8448043910774166 1.893973621717417
v 5.964228282741307 3.8448043910774166 1.893973621717417
v 5.964228282741307 3.8448043910774166 1.893973621717417
v 5.964228282741307 3.8448043910774166 1.893973621717417
v 5.964228282741307 3.8448043910774166 2.493973645559275
v 6.4333271785295 3.8448043910774166 2.2680675119075415
v 6.549185047916173 3.8448043910774166 1.76046106516453
v 6.224558512738942 3.8448043910774166 1.3533922761592505
v 5.703898052743672 3.8448043910774166 1.3533922761592505
v 5.379271517566441 3.8448043910774166 1.76046106516453
v 5.495129386953114 3.8448043910774166 2.2680675119075415
v 5.964228282741307 3.8448043910774166 2.493973645559275
v 5.964228282741307 2.8448043910774166 1.893973621717417
v 5.964228282741307 2.8448043910774166 1.893973621717417
v 5.964228282741307 2.8448043910774166 1.893973621717417
v 5.964228282741307 2.8448043910774166 1.893973621717417
v 5.964228282741307 2.8448043910774166 1.893973621717417
v 5.964228282741307 2.8448043910774166 1.893973621717417
v 5.964228282741307 2.8448043910774166 1.893973621717417
v 5.964228282741307 2.8448043910774166 2.893973621717417
v 6.746059785655736 2.8448043910774166 2.517463418832743
v 6.939156184962987 2.8448043910774166 1.6714526891622183
v 6.398112009338139 2.8448043910774166 0.993004772058451
v 5.530344556144475 2.8448043910774166 0.993004772058451
v 4.989300380519627 2.8448043910774166 1.6714526891622183
v 5.182396779826878 2.8448043910774166 2.517463418832743
v 5.964228282741307 2.8448043910774166 2.893973621717417
vt 0 1
vt 0.1428571492433548 1
vt 0.2857142984867096 1
vt 0.4285714328289032 1
vt 0.5714285969734192 1
vt 0.7142857313156128 1
vt 0.8571428656578064 1
vt 1 1
vt 0 0.6666666865348816
vt 0.1428571492433548 0.6666666865348816
vt 0.2857142984867096 0.6666666865348816
vt 0.4285714328289032 0.6666666865348816
vt 0.5714285969734192 0.6666666865348816
vt 0.7142857313156128 0.6666666865348816
vt 0.8571428656578064 0.6666666865348816
vt 1 0.6666666865348816
vt 0 0.3333333432674408
vt 0.1428571492433548 0.3333333432674408
vt 0.2857142984867096 0.3333333432674408
vt 0.4285714328289032 0.3333333432674408
vt 0.5714285969734192 0.3333333432674408
vt 0.7142857313156128 0.3333333432674408
vt 0.8571428656578064 0.3333333432674408
vt 1 0.3333333432674408
vt 0 0
vt 0.1428571492433548 0
vt 0.2857142984867096 0
vt 0.4285714328289032 0
vt 0.5714285969734192 0
vt 0.7142857313156128 0
vt 0.8571428656578064 0
vt 1 0
vt 0.5 0.5
vt 0.5 0.5
vt 0.5 0.5
vt 0.5 0.5
vt 0.5 0.5
vt 0.5 0.5
vt 0.5 0.5
vt 1 0.5
vt 0.8117449283599854 0.8909157514572144
vt 0.38873952627182007 0.9874639511108398
vt 0.04951556771993637 0.7169418931007385
vt 0.04951556771993637 0.28305813670158386
vt 0.38873952627182007 0.012536044232547283
vt 0.8117449283599854 0.10908425599336624
vt 1 0.5
vt 0.5 0.5
vt 0.5 0.5
vt 0.5 0.5
vt 0.5 0.5
vt 0.5 0.5
vt 0.5 0.5
vt 0.5 0.5
vt 1 0.5
vt 0.8117449283599854 0.10908425599336624
vt 0.38873952627182007 0.012536044232547283
vt 0.04951556771993637 0.28305813670158386
vt 0.04951556771993637 0.7169418931007385
vt 0.38873952627182007 0.9874639511108398
vt 0.8117449283599854 0.8909157514572144
vt 1 0.5
vn 0 0.3713906705379486 0.9284766912460327
vn 0.72591233253479 0.3713906705379486 0.5788957476615906
vn 0.9051978588104248 0.3713906705379486 -0.20660549402236938
vn 0.4028509259223938 0.3713906705379486 -0.8365285992622375
vn -0.4028509259223938 0.3713906705379486 -0.8365285992622375
vn -0.9051978588104248 0.3713906705379486 -0.20660549402236938
vn -0.72591233253479 0.3713906705379486 0.5788957476615906
vn -2.2741119392059774e-16 0.3713906705379486 0.9284766912460327
vn 0 0.3713906705379486 0.9284766912460327
vn 0.72591233253479 0.3713906705379486 0.5788957476615906
vn 0.9051978588104248 0.3713906705379486 -0.20660549402236938
vn 0.4028509259223938 0.3713906705379486 -0.8365285992622375
vn -0.4028509259223938 0.3713906705379486 -0.8365285992622375
vn -0.9051978588104248 0.3713906705379486 -0.20660549402236938
vn -0.72591233253479 0.3713906705379486 0.5788957476615906
vn -2.2741119392059774e-16 0.3713906705379486 0.9284766912460327
vn 0 0.3713906705379486 0.9284766912460327
vn 0.72591233253479 0.3713906705379486 0.5788957476615906
vn 0.9051978588104248 0.3713906705379486 -0.20660549402236938
vn 0.4028509259223938 0.3713906705379486 -0.8365285992622375
vn -0.4028509259223938 0.3713906705379486 -0.8365285992622375
vn -0.9051978588104248 0.3713906705379486 -0.20660549402236938
vn -0.72591233253479 0.3713906705379486 0.5788957476615906
vn -2.2741119392059774e-16 0.3713906705379486 0.9284766912460327
vn 0 0.3713906705379486 0.9284766912460327
vn 0.72591233253479 0.3713906705379486 0.5788957476615906
vn 0.9051978588104248 0.3713906705379486 -0.20660549402236938
vn 0.4028509259223938 0.3713906705379486 -0.8365285992622375
vn -0.4028509259223938 0.3713906705379486 -0.8365285992622375
vn -0.9051978588104248 0.3713906705379486 -0.20660549402236938
vn -0.72591233253479 0.3713906705379486 0.5788957476615906
vn -2.2741119392059774e-16 0.3713906705379486 0.9284766912460327
vn 0 1 0
vn 0 1 0
vn 0 1 0
vn 0 1 0
vn 0 1 0
vn 0 1 0
vn 0 1 0
vn 0 1 0
vn 0 1 0
vn 0 1 0
vn 0 1 0
vn 0 1 0
vn 0 1 0
vn 0 1 0
vn 0 1 0
vn 0 -1 0
vn 0 -1 0
vn 0 -1 0
vn 0 -1 0
vn 0 -1 0
vn 0 -1 0
vn 0 -1 0
vn 0 -1 0
vn 0 -1 0
vn 0 -1 0
vn 0 -1 0
vn 0 -1 0
vn 0 -1 0
vn 0 -1 0
vn 0 -1 0
f 55/55/55 63/63/63 56/56/56
f 63/63/63 64/64/64 56/56/56
f 63/63/63 71/71/71 64/64/64
f 71/71/71 72/72/72 64/64/64
f 71/71/71 79/79/79 72/72/72
f 79/79/79 80/80/80 72/72/72
f 56/56/56 64/64/64 57/57/57
f 64/64/64 65/65/65 57/57/57
f 64/64/64 72/72/72 65/65/65
f 72/72/72 73/73/73 65/65/65
f 72/72/72 80/80/80 73/73/73
f 80/80/80 81/81/81 73/73/73
f 57/57/57 65/65/65 58/58/58
f 65/65/65 66/66/66 58/58/58
f 65/65/65 73/73/73 66/66/66
f 73/73/73 74/74/74 66/66/66
f 73/73/73 81/81/81 74/74/74
f 81/81/81 82/82/82 74/74/74
f 58/58/58 66/66/66 59/59/59
f 66/66/66 67/67/67 59/59/59
f 66/66/66 74/74/74 67/67/67
f 74/74/74 75/75/75 67/67/67
f 74/74/74 82/82/82 75/75/75
f 82/82/82 83/83/83 75/75/75
f 59/59/59 67/67/67 60/60/60
f 67/67/67 68/68/68 60/60/60
f 67/67/67 75/75/75 68/68/68
f 75/75/75 76/76/76 68/68/68
f 75/75/75 83/83/83 76/76/76
f 83/83/83 84/84/84 76/76/76
f 60/60/60 68/68/68 61/61/61
f 68/68/68 69/69/69 61/61/61
f 68/68/68 76/76/76 69/69/69
f 76/76/76 77/77/77 69/69/69
f 76/76/76 84/84/84 77/77/77
f 84/84/84 85/85/85 77/77/77
f 61/61/61 69/69/69 62/62/62
f 69/69/69 70/70/70 62/62/62
f 69/69/69 77/77/77 70/70/70
f 77/77/77 78/78/78 70/70/70
f 77/77/77 85/85/85 78/78/78
f 85/85/85 86/86/86 78/78/78
f 94/94/94 95/95/95 87/87/87
f 95/95/95 96/96/96 88/88/88
f 96/96/96 97/97/97 89/89/89
f 97/97/97 98/98/98 90/90/90
f 98/98/98 99/99/99 91/91/91
f 99/99/99 100/100/100 92/92/92
f 100/100/100 101/101/101 93/93/93
f 110/110/110 109/109/109 102/102/102
f 111/111/111 110/110/110 103/103/103
f 112/112/112 111/111/111 104/104/104
f 113/113/113 112/112/112 105/105/105
f 114/114/114 113/113/113 106/106/106
f 115/115/115 114/114/114 107/107/107
f 116/116/116 115/115/115 108/108/108
